<svg width="225" height="220" viewBox="0 0 225 220" fill="none" xmlns="http://www.w3.org/2000/svg">
<g clip-path="url(#clip0_385_3404)">
<path d="M142.839 49.4769H82.2115C80.8299 49.4786 79.5054 50.0291 78.5284 51.0077C77.5515 51.9862 77.0019 53.313 77.0002 54.697V189.671L76.3054 189.883L61.4324 194.446C60.7276 194.661 59.9662 194.587 59.3156 194.241C58.6649 193.894 58.178 193.303 57.9618 192.598L13.7216 47.8447C13.5063 47.1386 13.5797 46.3758 13.9256 45.7239C14.2716 45.072 14.8617 44.5844 15.5664 44.3682L38.4856 37.3384L104.929 16.9662L127.848 9.93648C128.197 9.82895 128.564 9.79138 128.927 9.82591C129.29 9.86044 129.643 9.96639 129.965 10.1377C130.288 10.309 130.573 10.5423 130.806 10.8243C131.038 11.1063 131.212 11.4313 131.319 11.7809L142.627 48.7809L142.839 49.4769Z" fill="#F2F2F2"/>
<path d="M156.068 48.7804L142.439 4.18696C142.213 3.44395 141.842 2.75298 141.348 2.15353C140.855 1.55408 140.248 1.05791 139.563 0.693358C138.879 0.328808 138.129 0.103023 137.356 0.0289159C136.584 -0.0451914 135.805 0.0338304 135.064 0.261458L102.841 10.1413L36.4007 30.5171L4.17776 40.4004C2.68085 40.8609 1.42747 41.8974 0.692733 43.2826C-0.0420058 44.6677 -0.198075 46.2883 0.25879 47.7886L46.8405 200.191C47.2117 201.402 47.9605 202.462 48.9772 203.215C49.9939 203.969 51.2249 204.376 52.4896 204.377C53.075 204.377 53.657 204.289 54.2162 204.116L76.305 197.344L76.9998 197.128V196.401L76.305 196.613L54.0113 203.451C52.69 203.855 51.2629 203.717 50.043 203.068C48.8231 202.419 47.9101 201.311 47.5041 199.989L0.925974 47.5833C0.72485 46.9279 0.654754 46.2393 0.719695 45.5568C0.784636 44.8743 0.983334 44.2113 1.30442 43.6059C1.62551 43.0004 2.06269 42.4643 2.5909 42.0284C3.11911 41.5924 3.72799 41.265 4.38267 41.0651L36.6056 31.1818L103.046 10.8095L135.269 0.926155C135.765 0.774355 136.282 0.696955 136.801 0.69647C137.915 0.698976 138.999 1.0588 139.894 1.72323C140.79 2.38767 141.449 3.3218 141.776 4.38881L155.342 48.7804L155.558 49.4764H156.281L156.068 48.7804Z" fill="#3F3D56"/>
<path d="M42.6215 44.482C41.9519 44.4815 41.3 44.2661 40.7616 43.8673C40.2232 43.4686 39.8265 42.9074 39.6297 42.2663L35.1549 27.6251C35.0346 27.2318 34.9929 26.8186 35.0321 26.4092C35.0713 25.9998 35.1906 25.6021 35.3832 25.2388C35.5759 24.8756 35.8381 24.5539 36.1548 24.2922C36.4716 24.0304 36.8367 23.8338 37.2294 23.7134L98.3536 4.96854C99.1466 4.72616 100.003 4.80883 100.735 5.19838C101.467 5.58794 102.015 6.25256 102.259 7.04638L106.734 21.6878C106.976 22.482 106.893 23.34 106.504 24.0733C106.115 24.8067 105.452 25.3556 104.659 25.5996L43.535 44.3445C43.239 44.4355 42.9311 44.4818 42.6215 44.482Z" fill="#113D8D"/>
<path d="M66.0626 15.6448C69.9001 15.6448 73.0109 12.5287 73.0109 8.68472C73.0109 4.84076 69.9001 1.72461 66.0626 1.72461C62.2251 1.72461 59.1143 4.84076 59.1143 8.68472C59.1143 12.5287 62.2251 15.6448 66.0626 15.6448Z" fill="#113D8D"/>
<path d="M66.0626 13.0921C68.4926 13.0921 70.4625 11.1188 70.4625 8.6847C70.4625 6.25059 68.4926 4.27734 66.0626 4.27734C63.6326 4.27734 61.6627 6.25059 61.6627 8.6847C61.6627 11.1188 63.6326 13.0921 66.0626 13.0921Z" fill="white"/>
<path d="M209.366 202.6H91.9393C91.1563 202.599 90.4057 202.287 89.8521 201.732C89.2985 201.178 88.9871 200.426 88.9862 199.641V58.6993C88.9871 57.915 89.2985 57.1631 89.8521 56.6086C90.4057 56.054 91.1563 55.7421 91.9393 55.7412H209.366C210.149 55.7421 210.9 56.0541 211.453 56.6086C212.007 57.1631 212.318 57.915 212.319 58.6993V199.641C212.318 200.426 212.007 201.178 211.453 201.732C210.9 202.287 210.149 202.599 209.366 202.6Z" fill="#E6E6E6"/>
<path d="M155.343 48.7812H82.2115C80.6458 48.7835 79.1449 49.4075 78.0377 50.5165C76.9306 51.6255 76.3076 53.129 76.3054 54.6973V196.614L77.0003 196.402V54.6973C77.0019 53.3134 77.5515 51.9866 78.5285 51.008C79.5054 50.0295 80.8299 49.4789 82.2115 49.4773H155.558L155.343 48.7812ZM219.094 48.7812H82.2115C80.6458 48.7835 79.1449 49.4075 78.0377 50.5165C76.9306 51.6255 76.3076 53.129 76.3054 54.6973V214.084C76.3076 215.652 76.9306 217.156 78.0377 218.265C79.1449 219.374 80.6458 219.998 82.2115 220H219.094C220.66 219.998 222.161 219.374 223.268 218.265C224.375 217.156 224.998 215.652 225 214.084V54.6973C224.998 53.129 224.375 51.6255 223.268 50.5165C222.161 49.4075 220.66 48.7835 219.094 48.7812ZM224.305 214.084C224.303 215.468 223.754 216.795 222.777 217.773C221.8 218.752 220.476 219.302 219.094 219.304H82.2115C80.8299 219.302 79.5054 218.752 78.5285 217.773C77.5515 216.795 77.0019 215.468 77.0003 214.084V54.6973C77.0019 53.3134 77.5515 51.9866 78.5285 51.008C79.5054 50.0295 80.8299 49.4789 82.2115 49.4773H219.094C220.476 49.4789 221.8 50.0295 222.777 51.008C223.754 51.9866 224.303 53.3134 224.305 54.6973V214.084Z" fill="#3F3D56"/>
<path d="M182.615 64.0939H118.69C117.861 64.093 117.067 63.7627 116.48 63.1755C115.894 62.5884 115.565 61.7923 115.564 60.9619V45.6496C115.565 44.8192 115.894 44.0231 116.48 43.436C117.067 42.8488 117.861 42.5185 118.69 42.5176H182.615C183.444 42.5185 184.239 42.8488 184.825 43.436C185.411 44.0231 185.741 44.8192 185.742 45.6496V60.9619C185.741 61.7923 185.411 62.5884 184.825 63.1755C184.239 63.7627 183.444 64.093 182.615 64.0939Z" fill="#113D8D"/>
<path d="M150.653 43.5608C154.49 43.5608 157.601 40.4447 157.601 36.6007C157.601 32.7568 154.49 29.6406 150.653 29.6406C146.815 29.6406 143.704 32.7568 143.704 36.6007C143.704 40.4447 146.815 43.5608 150.653 43.5608Z" fill="#113D8D"/>
<path d="M150.653 40.84C152.99 40.84 154.885 38.942 154.885 36.6007C154.885 34.2594 152.99 32.3613 150.653 32.3613C148.315 32.3613 146.421 34.2594 146.421 36.6007C146.421 38.942 148.315 40.84 150.653 40.84Z" fill="white"/>
</g>
<defs>
<clipPath id="clip0_385_3404">
<rect width="225" height="220" fill="white"/>
</clipPath>
</defs>
</svg>
