<svg width="351" height="189" viewBox="0 0 351 189" fill="none" xmlns="http://www.w3.org/2000/svg">
<path d="M282.851 166.798C280.583 158.481 269.695 159.388 269.695 159.388L269.997 165.134C276.197 164.076 280.129 171.335 280.129 171.335L282.851 166.798Z" fill="#113D8D"/>
<path d="M53.4471 184.34C51.1788 176.023 40.2908 176.779 40.2908 176.779L40.5932 182.525C46.9446 181.467 50.7251 188.725 50.7251 188.725L53.4471 184.34Z" fill="#E0E0E0"/>
<path d="M179.869 69.2599C192.42 73.0405 200.133 58.5231 200.133 58.5231L192.571 54.1377C188.791 63.0598 176.24 62.0013 176.24 62.0013L179.869 69.2599Z" fill="#E0E0E0"/>
<path d="M110.306 84.8354C104.409 85.4403 103.653 92.699 103.653 92.699L107.584 93.1527C107.584 88.9184 113.028 87.1038 113.028 87.1038L110.306 84.8354Z" fill="#113D8D"/>
<path d="M350.75 138.368C351.657 132.622 344.701 130.051 344.701 130.051L343.34 133.68C347.423 134.739 347.877 140.334 347.877 140.334L350.75 138.368Z" fill="#E0E0E0"/>
<path d="M144.331 8.31721C145.087 2.57078 138.282 0 138.282 0L136.77 3.78055C141.004 4.83911 141.307 10.4343 141.307 10.4343L144.331 8.31721Z" fill="#113D8D"/>
<path d="M0.0656257 102.075C-0.992929 111.148 11.1049 113.265 11.1049 113.265L13.222 107.368C6.11453 106.763 5.05598 98.1431 5.05598 98.1431L0.0656257 102.075Z" fill="#113D8D"/>
<path d="M268.485 68.9573C274.383 69.4109 276.348 62.3035 276.348 62.3035L272.568 61.0938C271.812 65.328 266.217 66.2353 266.217 66.2353L268.485 68.9573Z" fill="#113D8D"/>
<path d="M300.544 92.8502C300.544 93.1526 298.427 93.3038 295.705 93.3038C292.983 93.3038 290.866 93.1526 290.866 92.8502C290.866 92.699 292.983 92.3965 295.705 92.3965C298.427 92.3965 300.544 92.699 300.544 92.8502Z" fill="#E0E0E0"/>
<path d="M305.686 79.6938C305.988 79.6938 306.139 81.9622 306.139 84.6842C306.139 87.4062 305.988 89.5233 305.686 89.5233C305.383 89.5233 305.232 87.4062 305.232 84.6842C305.232 81.9622 305.383 79.6938 305.686 79.6938Z" fill="#E0E0E0"/>
<path d="M311.129 92.5474C311.129 92.3962 313.398 92.0938 315.969 92.0938C318.691 92.0938 320.808 92.3962 320.808 92.5474C320.808 92.8498 318.691 93.0011 315.969 93.0011C313.398 93.0011 311.129 92.8498 311.129 92.5474Z" fill="#E0E0E0"/>
<path d="M305.988 105.704C305.837 105.704 305.534 103.587 305.534 100.865C305.534 98.1428 305.837 95.8745 305.988 95.8745C306.29 95.8745 306.441 98.1428 306.441 100.865C306.441 103.587 306.29 105.704 305.988 105.704Z" fill="#E0E0E0"/>
<path d="M313.851 100.109C313.7 100.26 312.793 99.5042 311.734 98.2944C310.827 97.2359 310.222 96.1773 310.373 96.0261C310.676 95.8749 311.583 96.631 312.49 97.6895C313.398 98.8993 314.003 99.9579 313.851 100.109Z" fill="#E0E0E0"/>
<path d="M313.398 85.1377C313.549 85.4402 312.944 86.3475 311.886 87.2548C310.978 88.3134 310.071 88.9183 309.769 88.7671C309.617 88.6158 310.222 87.7085 311.281 86.65C312.339 85.5914 313.247 84.9865 313.398 85.1377Z" fill="#E0E0E0"/>
<path d="M302.359 88.9182C302.207 89.2207 301.3 88.767 300.242 87.8596C299.334 87.1035 298.729 86.3475 298.881 86.1962C299.032 85.8938 299.939 86.4987 300.846 87.2548C301.905 88.0109 302.51 88.767 302.359 88.9182Z" fill="#E0E0E0"/>
<path d="M301.905 95.5723C302.056 95.7235 301.451 96.6309 300.544 97.6894C299.788 98.5967 298.881 99.3529 298.578 99.0504C298.427 98.8992 299.032 97.9919 299.939 97.0845C300.846 96.026 301.754 95.4211 301.905 95.5723Z" fill="#E0E0E0"/>
<path d="M37.115 65.9327C37.115 66.2351 34.9979 66.3863 32.2759 66.3863C29.5539 66.3863 27.4368 66.2351 27.4368 65.9327C27.4368 65.6302 29.5539 65.479 32.2759 65.479C34.9979 65.479 37.115 65.6302 37.115 65.9327Z" fill="#113D8D"/>
<path d="M42.2564 52.7764C42.5588 52.7764 42.7101 55.0447 42.7101 57.7667C42.7101 60.3375 42.5588 62.6058 42.2564 62.6058C41.9539 62.6058 41.8027 60.3375 41.8027 57.7667C41.8027 55.0447 41.9539 52.7764 42.2564 52.7764Z" fill="#113D8D"/>
<path d="M47.7002 65.6305C47.7002 65.328 49.8173 65.1768 52.5393 65.1768C55.2613 65.1768 57.3784 65.328 57.3784 65.6305C57.3784 65.9329 55.2613 66.0841 52.5393 66.0841C49.8173 66.0841 47.7002 65.9329 47.7002 65.6305Z" fill="#113D8D"/>
<path d="M42.5589 78.787C42.2564 78.787 42.1052 76.5186 42.1052 73.9479C42.1052 71.2259 42.2564 68.9575 42.5589 68.9575C42.8613 68.9575 43.0125 71.2259 43.0125 73.9479C43.0125 76.5186 42.8613 78.787 42.5589 78.787Z" fill="#113D8D"/>
<path d="M50.4224 73.1912C50.12 73.3424 49.2126 72.5863 48.3053 71.3765C47.398 70.318 46.7931 69.2594 46.9443 68.957C47.0955 68.8058 48.0028 69.7131 49.0614 70.7717C49.9687 71.9814 50.5737 73.04 50.4224 73.1912Z" fill="#113D8D"/>
<path d="M49.969 58.2203C50.1202 58.3715 49.5153 59.43 48.4567 60.3374C47.5494 61.3959 46.4909 62.0008 46.3396 61.8496C46.1884 61.6984 46.7933 60.6398 47.8519 59.7325C48.7592 58.6739 49.8177 58.069 49.969 58.2203Z" fill="#113D8D"/>
<path d="M38.7783 62.0014C38.6271 62.1526 37.7197 61.6989 36.8124 60.9428C35.9051 60.1867 35.3002 59.4305 35.4514 59.1281C35.6026 58.9769 36.51 59.4306 37.4173 60.1867C38.3246 61.094 39.0807 61.8501 38.7783 62.0014Z" fill="#113D8D"/>
<path d="M38.476 68.6551C38.6272 68.8064 38.0223 69.7137 37.115 70.7722C36.2077 71.6796 35.3004 72.2844 35.1491 72.1332C34.9979 71.982 35.6028 71.0747 36.5101 70.0161C37.2662 69.1088 38.1735 68.3527 38.476 68.6551Z" fill="#113D8D"/>
<path d="M214.837 117.46C213.403 116.626 212.114 115.564 211.021 114.316C211.132 112.577 211.546 110.872 212.245 109.276C213.53 105.65 214.983 101.543 212.651 98.3493C210.319 95.156 205.915 95.2576 202.051 95.3459C200.343 95.5216 198.618 95.4051 196.95 95.0014C196.061 93.555 195.426 91.9671 195.073 90.3065C193.977 86.5744 192.727 82.3565 188.889 81.0933C185.188 79.9008 181.761 82.5243 178.731 84.8298C177.424 86.0237 175.909 86.9683 174.261 87.6168C172.597 86.9736 171.065 86.0288 169.743 84.8298C166.722 82.5376 163.308 79.8876 159.589 81.0978C155.76 82.3433 154.51 86.5744 153.406 90.3065C153.053 91.9617 152.424 93.5458 151.546 94.9926C149.875 95.3952 148.147 95.5146 146.436 95.3459C142.558 95.2399 138.19 95.1251 135.836 98.3493C133.482 101.573 134.953 105.65 136.243 109.272C136.951 110.865 137.371 112.571 137.484 114.311C136.393 115.561 135.106 116.625 133.672 117.46C130.439 119.669 126.769 122.182 126.769 126.263C126.769 130.344 130.439 132.848 133.672 135.065C135.105 135.899 136.393 136.961 137.484 138.21C137.383 139.949 136.975 141.657 136.278 143.254C134.997 146.875 133.548 150.983 135.876 154.176C138.204 157.369 142.594 157.268 146.476 157.179C148.185 157.003 149.912 157.12 151.582 157.524C152.467 158.972 153.1 160.559 153.454 162.219C154.55 165.951 155.8 170.169 159.638 171.432C160.253 171.629 160.895 171.73 161.541 171.732C164.647 171.286 167.534 169.874 169.792 167.695C171.099 166.501 172.614 165.557 174.261 164.908C175.926 165.552 177.458 166.496 178.779 167.695C181.805 170.005 185.232 172.642 188.938 171.427C192.767 170.182 194.017 165.951 195.121 162.223C195.475 160.565 196.108 158.979 196.994 157.533C198.659 157.127 200.381 157.008 202.086 157.179C205.964 157.272 210.332 157.4 212.686 154.176C215.04 150.952 213.57 146.875 212.28 143.249C211.576 141.657 211.156 139.955 211.039 138.219C212.13 136.967 213.419 135.903 214.855 135.069C218.088 132.861 221.758 130.344 221.758 126.263C221.758 122.182 218.075 119.673 214.837 117.46Z" fill="#113D8D"/>
<path d="M169.844 138.408C169.409 138.409 168.979 138.324 168.577 138.157C168.175 137.99 167.81 137.745 167.504 137.437L158.67 128.603C158.085 127.975 157.767 127.145 157.782 126.287C157.797 125.428 158.145 124.61 158.751 124.003C159.358 123.396 160.177 123.048 161.035 123.033C161.893 123.018 162.724 123.336 163.352 123.922L170.154 130.723L185.524 119.196C186.226 118.669 187.11 118.442 187.98 118.567C188.849 118.691 189.634 119.155 190.161 119.858C190.688 120.561 190.915 121.444 190.79 122.314C190.666 123.184 190.201 123.969 189.499 124.496L171.832 137.746C171.258 138.175 170.561 138.408 169.844 138.408Z" fill="white"/>
</svg>
